<svg xmlns="http://www.w3.org/2000/svg" xmlns:xlink="http://www.w3.org/1999/xlink" width="500" zoomAndPan="magnify" viewBox="0 0 375 374.999991" height="500" preserveAspectRatio="xMidYMid meet" version="1.0"><defs><g/></defs><g fill="#ff00ff" fill-opacity="1"><g transform="translate(67.383407, 280.82318)"><g><path d="M 72.328125 47.9375 L 59.859375 29.09375 C 60.410156 28.351562 61.144531 27.425781 62.0625 26.3125 C 62.988281 25.207031 64.929688 23.128906 67.890625 20.078125 C 70.847656 17.035156 73.710938 14.359375 76.484375 12.046875 C 79.253906 9.742188 82.484375 7.664062 86.171875 5.8125 C 89.867188 3.96875 93.285156 3.046875 96.421875 3.046875 L 96.421875 1.9375 C 69.453125 -3.226562 47.703125 -16.523438 31.171875 -37.953125 C 14.640625 -59.390625 6.375 -84.882812 6.375 -114.4375 C 6.375 -147.6875 17.457031 -175.71875 39.625 -198.53125 C 61.789062 -221.351562 88.671875 -232.765625 120.265625 -232.765625 C 152.035156 -232.765625 178.910156 -221.351562 200.890625 -198.53125 C 222.867188 -175.71875 233.859375 -147.6875 233.859375 -114.4375 C 233.859375 -87.28125 226.5625 -63.359375 211.96875 -42.671875 C 197.382812 -21.984375 178.175781 -8.035156 154.34375 -0.828125 L 154.34375 0.28125 C 155.445312 0.28125 160.335938 1.15625 169.015625 2.90625 C 177.703125 4.664062 184.632812 5.546875 189.8125 5.546875 C 196.832031 5.546875 203.203125 4.296875 208.921875 1.796875 C 214.648438 -0.691406 218.625 -3.140625 220.84375 -5.546875 L 224.171875 -9.421875 L 240.515625 25.765625 C 240.148438 26.691406 239.550781 27.847656 238.71875 29.234375 C 237.882812 30.617188 235.988281 33.066406 233.03125 36.578125 C 230.082031 40.085938 226.804688 43.226562 223.203125 46 C 219.597656 48.769531 214.789062 51.257812 208.78125 53.46875 C 202.78125 55.6875 196.363281 56.796875 189.53125 56.796875 C 178.257812 56.796875 164.492188 53.191406 148.234375 45.984375 C 131.984375 38.785156 117.945312 35.1875 106.125 35.1875 C 99.65625 35.1875 93.601562 36.25 87.96875 38.375 C 82.34375 40.5 78.328125 42.671875 75.921875 44.890625 Z M 62.625 -114.4375 C 62.625 -105.570312 63.640625 -97.304688 65.671875 -89.640625 C 67.703125 -81.972656 70.890625 -75 75.234375 -68.71875 C 79.578125 -62.4375 85.578125 -57.492188 93.234375 -53.890625 C 100.898438 -50.285156 109.910156 -48.484375 120.265625 -48.484375 C 139.660156 -48.484375 154.066406 -54.765625 163.484375 -67.328125 C 172.898438 -79.890625 177.609375 -95.59375 177.609375 -114.4375 C 177.609375 -133.09375 172.804688 -148.75 163.203125 -161.40625 C 153.597656 -174.0625 139.285156 -180.390625 120.265625 -180.390625 C 101.421875 -180.390625 87.101562 -174.015625 77.3125 -161.265625 C 67.519531 -148.523438 62.625 -132.914062 62.625 -114.4375 Z M 62.625 -114.4375 "/></g></g></g><g fill="#00ffff" fill-opacity="1"><g transform="translate(67.383407, 270.43215)"><g><path d="M 72.328125 47.9375 L 59.859375 29.09375 C 60.410156 28.351562 61.144531 27.425781 62.0625 26.3125 C 62.988281 25.207031 64.929688 23.128906 67.890625 20.078125 C 70.847656 17.035156 73.710938 14.359375 76.484375 12.046875 C 79.253906 9.742188 82.484375 7.664062 86.171875 5.8125 C 89.867188 3.96875 93.285156 3.046875 96.421875 3.046875 L 96.421875 1.9375 C 69.453125 -3.226562 47.703125 -16.523438 31.171875 -37.953125 C 14.640625 -59.390625 6.375 -84.882812 6.375 -114.4375 C 6.375 -147.6875 17.457031 -175.71875 39.625 -198.53125 C 61.789062 -221.351562 88.671875 -232.765625 120.265625 -232.765625 C 152.035156 -232.765625 178.910156 -221.351562 200.890625 -198.53125 C 222.867188 -175.71875 233.859375 -147.6875 233.859375 -114.4375 C 233.859375 -87.28125 226.5625 -63.359375 211.96875 -42.671875 C 197.382812 -21.984375 178.175781 -8.035156 154.34375 -0.828125 L 154.34375 0.28125 C 155.445312 0.28125 160.335938 1.15625 169.015625 2.90625 C 177.703125 4.664062 184.632812 5.546875 189.8125 5.546875 C 196.832031 5.546875 203.203125 4.296875 208.921875 1.796875 C 214.648438 -0.691406 218.625 -3.140625 220.84375 -5.546875 L 224.171875 -9.421875 L 240.515625 25.765625 C 240.148438 26.691406 239.550781 27.847656 238.71875 29.234375 C 237.882812 30.617188 235.988281 33.066406 233.03125 36.578125 C 230.082031 40.085938 226.804688 43.226562 223.203125 46 C 219.597656 48.769531 214.789062 51.257812 208.78125 53.46875 C 202.78125 55.6875 196.363281 56.796875 189.53125 56.796875 C 178.257812 56.796875 164.492188 53.191406 148.234375 45.984375 C 131.984375 38.785156 117.945312 35.1875 106.125 35.1875 C 99.65625 35.1875 93.601562 36.25 87.96875 38.375 C 82.34375 40.5 78.328125 42.671875 75.921875 44.890625 Z M 62.625 -114.4375 C 62.625 -105.570312 63.640625 -97.304688 65.671875 -89.640625 C 67.703125 -81.972656 70.890625 -75 75.234375 -68.71875 C 79.578125 -62.4375 85.578125 -57.492188 93.234375 -53.890625 C 100.898438 -50.285156 109.910156 -48.484375 120.265625 -48.484375 C 139.660156 -48.484375 154.066406 -54.765625 163.484375 -67.328125 C 172.898438 -79.890625 177.609375 -95.59375 177.609375 -114.4375 C 177.609375 -133.09375 172.804688 -148.75 163.203125 -161.40625 C 153.597656 -174.0625 139.285156 -180.390625 120.265625 -180.390625 C 101.421875 -180.390625 87.101562 -174.015625 77.3125 -161.265625 C 67.519531 -148.523438 62.625 -132.914062 62.625 -114.4375 Z M 62.625 -114.4375 "/></g></g></g><g fill="#ffffff" fill-opacity="1"><g transform="translate(67.383407, 275.627665)"><g><path d="M 72.328125 47.9375 L 59.859375 29.09375 C 60.410156 28.351562 61.144531 27.425781 62.0625 26.3125 C 62.988281 25.207031 64.929688 23.128906 67.890625 20.078125 C 70.847656 17.035156 73.710938 14.359375 76.484375 12.046875 C 79.253906 9.742188 82.484375 7.664062 86.171875 5.8125 C 89.867188 3.96875 93.285156 3.046875 96.421875 3.046875 L 96.421875 1.9375 C 69.453125 -3.226562 47.703125 -16.523438 31.171875 -37.953125 C 14.640625 -59.390625 6.375 -84.882812 6.375 -114.4375 C 6.375 -147.6875 17.457031 -175.71875 39.625 -198.53125 C 61.789062 -221.351562 88.671875 -232.765625 120.265625 -232.765625 C 152.035156 -232.765625 178.910156 -221.351562 200.890625 -198.53125 C 222.867188 -175.71875 233.859375 -147.6875 233.859375 -114.4375 C 233.859375 -87.28125 226.5625 -63.359375 211.96875 -42.671875 C 197.382812 -21.984375 178.175781 -8.035156 154.34375 -0.828125 L 154.34375 0.28125 C 155.445312 0.28125 160.335938 1.15625 169.015625 2.90625 C 177.703125 4.664062 184.632812 5.546875 189.8125 5.546875 C 196.832031 5.546875 203.203125 4.296875 208.921875 1.796875 C 214.648438 -0.691406 218.625 -3.140625 220.84375 -5.546875 L 224.171875 -9.421875 L 240.515625 25.765625 C 240.148438 26.691406 239.550781 27.847656 238.71875 29.234375 C 237.882812 30.617188 235.988281 33.066406 233.03125 36.578125 C 230.082031 40.085938 226.804688 43.226562 223.203125 46 C 219.597656 48.769531 214.789062 51.257812 208.78125 53.46875 C 202.78125 55.6875 196.363281 56.796875 189.53125 56.796875 C 178.257812 56.796875 164.492188 53.191406 148.234375 45.984375 C 131.984375 38.785156 117.945312 35.1875 106.125 35.1875 C 99.65625 35.1875 93.601562 36.25 87.96875 38.375 C 82.34375 40.5 78.328125 42.671875 75.921875 44.890625 Z M 62.625 -114.4375 C 62.625 -105.570312 63.640625 -97.304688 65.671875 -89.640625 C 67.703125 -81.972656 70.890625 -75 75.234375 -68.71875 C 79.578125 -62.4375 85.578125 -57.492188 93.234375 -53.890625 C 100.898438 -50.285156 109.910156 -48.484375 120.265625 -48.484375 C 139.660156 -48.484375 154.066406 -54.765625 163.484375 -67.328125 C 172.898438 -79.890625 177.609375 -95.59375 177.609375 -114.4375 C 177.609375 -133.09375 172.804688 -148.75 163.203125 -161.40625 C 153.597656 -174.0625 139.285156 -180.390625 120.265625 -180.390625 C 101.421875 -180.390625 87.101562 -174.015625 77.3125 -161.265625 C 67.519531 -148.523438 62.625 -132.914062 62.625 -114.4375 Z M 62.625 -114.4375 "/></g></g></g><g fill="#ff00ff" fill-opacity="1"><g transform="translate(152.341853, 203.703982)"><g><path d="M 68.859375 -75.453125 L 31.453125 -15.09375 L 66.390625 -15.09375 L 66.390625 0 L 1.46875 0 L 38.78125 -60.359375 L 6.765625 -60.359375 L 6.765625 -75.453125 Z M 68.859375 -75.453125 "/></g></g></g><g fill="#00ffff" fill-opacity="1"><g transform="translate(152.341853, 200.274277)"><g><path d="M 68.859375 -75.453125 L 31.453125 -15.09375 L 66.390625 -15.09375 L 66.390625 0 L 1.46875 0 L 38.78125 -60.359375 L 6.765625 -60.359375 L 6.765625 -75.453125 Z M 68.859375 -75.453125 "/></g></g></g><g fill="#ffffff" fill-opacity="1"><g transform="translate(152.341853, 201.989132)"><g><path d="M 68.859375 -75.453125 L 31.453125 -15.09375 L 66.390625 -15.09375 L 66.390625 0 L 1.46875 0 L 38.78125 -60.359375 L 6.765625 -60.359375 L 6.765625 -75.453125 Z M 68.859375 -75.453125 "/></g></g></g></svg>