<svg xmlns="http://www.w3.org/2000/svg" xmlns:xlink="http://www.w3.org/1999/xlink" width="500" zoomAndPan="magnify" viewBox="0 0 375 374.999991" height="500" preserveAspectRatio="xMidYMid meet" version="1.0"><defs><clipPath id="6c57c1abbd"><path d="M 84 0 L 307 0 L 307 108 L 84 108 Z M 84 0 " clip-rule="nonzero"/></clipPath><clipPath id="ae22e47ade"><path d="M -9.667969 -27.921875 L 215.125 -196.949219 L 384.152344 27.84375 L 159.363281 196.871094 Z M -9.667969 -27.921875 " clip-rule="nonzero"/></clipPath><clipPath id="b6cdf25cec"><path d="M -9.667969 -27.921875 L 215.125 -196.949219 L 384.152344 27.84375 L 159.363281 196.871094 Z M -9.667969 -27.921875 " clip-rule="nonzero"/></clipPath></defs><rect x="-37.5" width="450" fill="#ffffff" y="-37.499999" height="449.999989" fill-opacity="1"/><rect x="-37.5" width="450" fill="#ffffff" y="-37.499999" height="449.999989" fill-opacity="1"/><rect x="-37.5" width="450" fill="#f5f7fb" y="-37.499999" height="449.999989" fill-opacity="1"/><g clip-path="url(#6c57c1abbd)"><g clip-path="url(#ae22e47ade)"><g clip-path="url(#b6cdf25cec)"><path fill="#fffad1" d="M 175.804688 -107.210938 C 196.957031 -103.410156 214.859375 -93.644531 236.804688 -86.21875 C 258.722656 -78.597656 284.660156 -73.117188 296.941406 -57.71875 C 309.421875 -42.292969 308.355469 -17.035156 301.238281 4.152344 C 293.925781 25.308594 280.558594 42.398438 267.640625 59.851562 C 254.613281 77.390625 242.234375 95.320312 225.171875 103.046875 C 208.023438 110.664062 186.308594 107.992188 168.242188 100.109375 C 150.175781 92.230469 135.757812 79.140625 120.695312 65.660156 C 105.519531 52.261719 89.667969 38.667969 85.316406 21.882812 C 81.050781 5.210938 88.335938 -14.34375 93.765625 -36.375 C 99.222656 -58.597656 102.792969 -83.101562 116.699219 -96.195312 C 130.519531 -109.402344 154.675781 -111.203125 175.804688 -107.210938 Z M 175.804688 -107.210938 " fill-opacity="1" fill-rule="nonzero"/></g></g></g><path fill="#deebf8" d="M 39.675781 343.6875 C 48.824219 361.386719 51.824219 380.738281 44.175781 393.261719 C 36.523438 405.710938 18.226562 411.335938 2.175781 410.0625 C -13.949219 408.863281 -27.898438 400.761719 -34.648438 388.761719 C -41.398438 376.761719 -41.023438 360.9375 -34.050781 344.4375 C -27.074219 327.9375 -13.574219 310.910156 0.898438 310.386719 C 15.300781 309.863281 30.601562 325.988281 39.675781 343.6875 Z M 39.675781 343.6875 " fill-opacity="1" fill-rule="nonzero"/></svg>